<?xml version="1.0" encoding="iso-8859-1"?>
<!-- Uploaded to: SVG Repo, www.svgrepo.com, Generator: SVG Repo Mixer Tools -->
<!DOCTYPE svg PUBLIC "-//W3C//DTD SVG 1.1//EN" "http://www.w3.org/Graphics/SVG/1.1/DTD/svg11.dtd">
<svg fill="#000000" version="1.1" id="Capa_1" xmlns="http://www.w3.org/2000/svg" xmlns:xlink="http://www.w3.org/1999/xlink" 
	 width="800px" height="800px" viewBox="0 0 45.057 45.057"
	 xml:space="preserve">
<g>
	<g id="_x37_8_70_">
		<g>
			<path d="M17.197,20.22c-0.286-0.374-0.659-0.675-1.122-0.904s-1.028-0.344-1.697-0.344h-4.073v8.056h3.587
				c0.7,0,1.31-0.094,1.828-0.283c0.519-0.186,0.948-0.457,1.286-0.807c0.339-0.351,0.59-0.773,0.756-1.273
				c0.165-0.5,0.248-1.059,0.248-1.676c0-0.503-0.064-0.999-0.192-1.483C17.69,21.02,17.483,20.592,17.197,20.22z M15.466,23.587
				c-0.041,0.233-0.124,0.452-0.248,0.653c-0.124,0.203-0.303,0.375-0.536,0.514c-0.233,0.141-0.542,0.208-0.925,0.208h-0.97v-3.925
				h0.789c0.451,0,0.807,0.075,1.066,0.226c0.259,0.151,0.455,0.33,0.586,0.542c0.132,0.211,0.216,0.422,0.248,0.637
				c0.034,0.215,0.052,0.386,0.052,0.514C15.528,23.143,15.507,23.354,15.466,23.587z"/>
			<path d="M25.89,19.972c-0.357-0.374-0.789-0.666-1.293-0.875c-0.504-0.211-1.061-0.317-1.668-0.317
				c-0.609,0-1.166,0.106-1.671,0.317c-0.503,0.209-0.934,0.501-1.291,0.875c-0.357,0.37-0.634,0.814-0.829,1.33
				c-0.195,0.515-0.294,1.082-0.294,1.696c0,0.618,0.099,1.186,0.294,1.7c0.195,0.516,0.472,0.957,0.829,1.33
				s0.788,0.666,1.291,0.873c0.505,0.213,1.062,0.316,1.671,0.316c0.608,0,1.165-0.104,1.668-0.316
				c0.504-0.207,0.936-0.5,1.293-0.873c0.355-0.373,0.633-0.814,0.828-1.33c0.193-0.516,0.293-1.082,0.293-1.7
				c0-0.614-0.1-1.182-0.293-1.696C26.522,20.787,26.245,20.342,25.89,19.972z M24.366,24.105c-0.109,0.285-0.242,0.51-0.4,0.67
				c-0.158,0.162-0.33,0.275-0.519,0.338c-0.188,0.064-0.36,0.099-0.519,0.099c-0.158,0-0.332-0.033-0.52-0.099
				c-0.188-0.062-0.361-0.176-0.52-0.338c-0.157-0.16-0.291-0.385-0.399-0.67c-0.109-0.285-0.164-0.654-0.164-1.106
				c0-0.449,0.055-0.818,0.164-1.104c0.108-0.285,0.242-0.509,0.399-0.67c0.158-0.162,0.332-0.275,0.52-0.34
				c0.188-0.063,0.361-0.096,0.52-0.096c0.157,0,0.33,0.033,0.519,0.096c0.189,0.064,0.361,0.178,0.519,0.34
				c0.158,0.161,0.291,0.385,0.4,0.67c0.107,0.286,0.164,0.655,0.164,1.104C24.53,23.451,24.474,23.82,24.366,24.105z"/>
			<path d="M28.935,19.942c-0.357,0.369-0.631,0.813-0.824,1.331c-0.189,0.52-0.287,1.094-0.287,1.726
				c0,0.595,0.09,1.149,0.271,1.665c0.182,0.515,0.445,0.961,0.795,1.338c0.352,0.376,0.777,0.671,1.281,0.891
				c0.504,0.219,1.082,0.326,1.736,0.326c0.586,0,1.109-0.098,1.568-0.294c0.459-0.194,0.844-0.452,1.154-0.771
				c0.312-0.32,0.551-0.681,0.711-1.078c0.162-0.398,0.244-0.801,0.244-1.209h-2.438c-0.039,0.189-0.09,0.365-0.152,0.531
				c-0.064,0.164-0.146,0.309-0.248,0.43c-0.104,0.119-0.227,0.214-0.373,0.281s-0.324,0.103-0.535,0.103
				c-0.293,0-0.539-0.063-0.732-0.192c-0.197-0.127-0.352-0.298-0.469-0.507c-0.117-0.211-0.201-0.448-0.254-0.711
				c-0.055-0.265-0.078-0.53-0.078-0.803c0-0.27,0.023-0.535,0.078-0.8c0.053-0.263,0.137-0.5,0.254-0.71
				c0.117-0.212,0.271-0.381,0.469-0.508c0.193-0.129,0.439-0.192,0.732-0.192c0.256,0,0.465,0.05,0.627,0.146
				c0.16,0.098,0.291,0.211,0.389,0.338c0.098,0.129,0.164,0.26,0.203,0.39c0.037,0.132,0.062,0.234,0.078,0.311h2.414
				c-0.104-1.017-0.459-1.8-1.066-2.353c-0.604-0.553-1.465-0.831-2.576-0.841c-0.625,0-1.188,0.103-1.686,0.305
				C29.72,19.289,29.292,19.575,28.935,19.942z"/>
			<path d="M33.431,0H5.179v45.057h34.699V6.251L33.431,0z M36.878,42.056H8.179V3h23.707v4.76h4.992V42.056L36.878,42.056z"/>
		</g>
	</g>
</g>
</svg>